<svg width="1694" height="1103" fill="none" xmlns="http://www.w3.org/2000/svg"><path d="M1692.33 1082.11c.92-2.85 1.55-5.85 1.55-9.02V29.633c0-3.182-.63-6.206-1.57-9.074-.14-.393-.21-.786-.37-1.178a29.311 29.311 0 00-5.42-9.035c-.16-.177-.18-.393-.34-.57-.09-.098-.21-.137-.31-.236-2.47-2.631-5.4-4.753-8.68-6.344-.26-.117-.45-.275-.71-.392-3.1-1.395-6.48-2.18-10.03-2.416-.36-.02-.69-.098-1.05-.098-.33-.02-.62-.099-.96-.099H30.256c-.333 0-.648.079-.982.099-.314.02-.628.078-.942.098-3.595.236-7.032 1.04-10.174 2.455-.197.078-.354.216-.55.295A29.12 29.12 0 008.809 9.56c-.098.098-.216.118-.314.216-.157.157-.177.373-.334.55-2.318 2.652-4.183 5.696-5.44 9.055-.158.392-.236.785-.374 1.198-.942 2.867-1.57 5.892-1.57 9.074V1073.13c0 3.22.647 6.29 1.61 9.19.137.4.216.77.353 1.16 1.277 3.38 3.162 6.43 5.5 9.08.137.15.176.35.314.51.118.14.275.21.412.35.963 1 2.023 1.89 3.123 2.75.491.37.923.83 1.434 1.18 1.296.9 2.69 1.63 4.124 2.3.354.15.668.41 1.022.55a29.531 29.531 0 0011.568 2.37H1664.4c4.11 0 8.02-.84 11.57-2.37.55-.24 1.06-.59 1.59-.87 1.22-.61 2.44-1.23 3.56-2 .59-.41 1.12-.94 1.69-1.39 1-.81 1.98-1.61 2.84-2.54.16-.16.34-.27.49-.43.16-.18.2-.41.36-.59 2.3-2.63 4.14-5.66 5.4-8.99.2-.44.29-.85.43-1.28zM59.717 96.451L555.58 549.39 59.717 1005.94V96.451zM1076.03 527.195c-2.04 1.336-4.2 2.455-5.91 4.341-.65.707-.86 1.63-1.43 2.376L847.339 736.095l-741.152-677H1588.49l-512.46 468.1zM599.261 589.28l228.202 208.448a29.388 29.388 0 0019.876 7.719c7.13 0 14.24-2.573 19.857-7.719l225.374-205.856 495.78 451.778H105.754l493.507-454.37zm537.009-37.318l498.69-455.51v909.958l-498.69-454.448z" fill="#fff"/></svg>